REM DIRINDEX 1\2\6,1\2\7,1\2\8,1\2\9,1\3\10,1\3\11,1\4\12,1\4\13,1\4\14,1\5\15,1\5\16,1\5\17
REM DIRNAME cjc020,folder01,folder02,folder03,folder04,folder05,folder06,folder07,folder08,folder09,folder10,folder11,folder12,folder13,folder14,folder15,folder16
TITLE ""
FILE "1900_2_sec06_0580_0600.mp3" MP3
  TRACK 01 AUDIO
    TITLE "0:"
    INDEX 01 00:00:00
  TRACK 02 AUDIO
    TITLE "13:cjc020_3269"
    INDEX 01 00:00:17
  TRACK 03 AUDIO
    TITLE "0:"
    INDEX 01 00:01:28
  TRACK 04 AUDIO
    TITLE "14:cjc020_3270"
    INDEX 01 00:01:30
  TRACK 05 AUDIO
    TITLE "0:"
    INDEX 01 00:05:07
  TRACK 06 AUDIO
    TITLE "13:cjc020_3271"
    INDEX 01 00:05:61
  TRACK 07 AUDIO
    TITLE "0:"
    INDEX 01 00:07:07
  TRACK 08 AUDIO
    TITLE "14:cjc020_3272"
    INDEX 01 00:07:11
  TRACK 09 AUDIO
    TITLE "0:"
    INDEX 01 00:08:30
  TRACK 10 AUDIO
    TITLE "13:cjc020_3273"
    INDEX 01 00:09:10
  TRACK 11 AUDIO
    TITLE "0:"
    INDEX 01 00:10:29
  TRACK 12 AUDIO
    TITLE "14:cjc020_3274"
    INDEX 01 00:10:31
  TRACK 13 AUDIO
    TITLE "0:"
    INDEX 01 00:14:17
  TRACK 14 AUDIO
    TITLE "13:cjc020_3275"
    INDEX 01 00:14:70
  TRACK 15 AUDIO
    TITLE "0:"
    INDEX 01 00:16:18
  TRACK 16 AUDIO
    TITLE "14:cjc020_3276"
    INDEX 01 00:16:22
  TRACK 17 AUDIO
    TITLE "0:"
    INDEX 01 00:17:33
  TRACK 18 AUDIO
    TITLE "13:cjc020_3277"
    INDEX 01 00:18:15
  TRACK 19 AUDIO
    TITLE "0:"
    INDEX 01 00:19:22
  TRACK 20 AUDIO
    TITLE "14:cjc020_3278"
    INDEX 01 00:19:24
  TRACK 21 AUDIO
    TITLE "0:"
    INDEX 01 00:23:10
  TRACK 22 AUDIO
    TITLE "13:cjc020_3279"
    INDEX 01 00:23:61
  TRACK 23 AUDIO
    TITLE "0:"
    INDEX 01 00:25:07
  TRACK 24 AUDIO
    TITLE "14:cjc020_3280"
    INDEX 01 00:25:09
  TRACK 25 AUDIO
    TITLE "0:"
    INDEX 01 00:26:56
  TRACK 26 AUDIO
    TITLE "13:cjc020_3281"
    INDEX 01 00:27:36
  TRACK 27 AUDIO
    TITLE "0:"
    INDEX 01 00:28:68
  TRACK 28 AUDIO
    TITLE "14:cjc020_3282"
    INDEX 01 00:28:70
  TRACK 29 AUDIO
    TITLE "0:"
    INDEX 01 00:32:68
  TRACK 30 AUDIO
    TITLE "13:cjc020_3283"
    INDEX 01 00:33:46
  TRACK 31 AUDIO
    TITLE "0:"
    INDEX 01 00:35:04
  TRACK 32 AUDIO
    TITLE "14:cjc020_3284"
    INDEX 01 00:35:10
  TRACK 33 AUDIO
    TITLE "0:"
    INDEX 01 00:37:42
  TRACK 34 AUDIO
    TITLE "13:cjc020_3285"
    INDEX 01 00:38:24
  TRACK 35 AUDIO
    TITLE "0:"
    INDEX 01 00:39:39
  TRACK 36 AUDIO
    TITLE "14:cjc020_3286"
    INDEX 01 00:39:43
  TRACK 37 AUDIO
    TITLE "0:"
    INDEX 01 00:41:06
  TRACK 38 AUDIO
    TITLE "13:cjc020_3287"
    INDEX 01 00:41:61
  TRACK 39 AUDIO
    TITLE "0:"
    INDEX 01 00:43:13
  TRACK 40 AUDIO
    TITLE "14:cjc020_3288"
    INDEX 01 00:43:15
  TRACK 41 AUDIO
    TITLE "0:"
    INDEX 01 00:46:45
  TRACK 42 AUDIO
    TITLE "13:cjc020_3289"
    INDEX 01 00:47:25
  TRACK 43 AUDIO
    TITLE "0:"
    INDEX 01 00:48:44
  TRACK 44 AUDIO
    TITLE "14:cjc020_3290"
    INDEX 01 00:48:48
  TRACK 45 AUDIO
    TITLE "0:"
    INDEX 01 00:52:32
  TRACK 46 AUDIO
    TITLE "13:cjc020_3291"
    INDEX 01 00:53:13
  TRACK 47 AUDIO
    TITLE "0:"
    INDEX 01 00:54:27
  TRACK 48 AUDIO
    TITLE "14:cjc020_3292"
    INDEX 01 00:54:30
  TRACK 49 AUDIO
    TITLE "0:"
    INDEX 01 00:56:47
  TRACK 50 AUDIO
    TITLE "13:cjc020_3293"
    INDEX 01 00:57:29
  TRACK 51 AUDIO
    TITLE "0:"
    INDEX 01 00:58:48
  TRACK 52 AUDIO
    TITLE "14:cjc020_3294"
    INDEX 01 00:58:50
  TRACK 53 AUDIO
    TITLE "0:"
    INDEX 01 01:00:74
  TRACK 54 AUDIO
    TITLE "13:cjc020_3295"
    INDEX 01 01:01:60
  TRACK 55 AUDIO
    TITLE "0:"
    INDEX 01 01:02:55
  TRACK 56 AUDIO
    TITLE "14:cjc020_3296"
    INDEX 01 01:02:59
  TRACK 57 AUDIO
    TITLE "0:"
    INDEX 01 01:05:42
  TRACK 58 AUDIO
    TITLE "13:cjc020_3297"
    INDEX 01 01:06:20
  TRACK 59 AUDIO
    TITLE "0:"
    INDEX 01 01:07:37
  TRACK 60 AUDIO
    TITLE "14:cjc020_3298"
    INDEX 01 01:07:43
  TRACK 61 AUDIO
    TITLE "0:"
    INDEX 01 01:08:62
  TRACK 62 AUDIO
    TITLE "13:cjc020_3299"
    INDEX 01 01:09:44
  TRACK 63 AUDIO
    TITLE "0:"
    INDEX 01 01:10:63
  TRACK 64 AUDIO
    TITLE "14:cjc020_3300"
    INDEX 01 01:10:67
  TRACK 65 AUDIO
    TITLE "0:"
    INDEX 01 01:13:28
  TRACK 66 AUDIO
    TITLE "13:cjc020_3301"
    INDEX 01 01:14:12
  TRACK 67 AUDIO
    TITLE "0:"
    INDEX 01 01:15:27
  TRACK 68 AUDIO
    TITLE "14:cjc020_3302"
    INDEX 01 01:15:35
  TRACK 69 AUDIO
    TITLE "0:"
    INDEX 01 01:18:21
  TRACK 70 AUDIO
    TITLE "13:cjc020_3303"
    INDEX 01 01:19:01
  TRACK 71 AUDIO
    TITLE "0:"
    INDEX 01 01:20:08
  TRACK 72 AUDIO
    TITLE "14:cjc020_3304"
    INDEX 01 01:20:10
  TRACK 73 AUDIO
    TITLE "0:"
    INDEX 01 01:22:37
  TRACK 74 AUDIO
    TITLE "13:cjc020_3305"
    INDEX 01 01:23:16
  TRACK 75 AUDIO
    TITLE "0:"
    INDEX 01 01:24:41
  TRACK 76 AUDIO
    TITLE "14:cjc020_3306"
    INDEX 01 01:24:45
  TRACK 77 AUDIO
    TITLE "0:"
    INDEX 01 01:27:12
  TRACK 78 AUDIO
    TITLE "13:cjc020_3307"
    INDEX 01 01:27:63
  TRACK 79 AUDIO
    TITLE "0:"
    INDEX 01 01:29:01
  TRACK 80 AUDIO
    TITLE "14:cjc020_3308"
    INDEX 01 01:29:05
  TRACK 81 AUDIO
    TITLE "0:"
    INDEX 01 01:33:19
  TRACK 82 AUDIO
    TITLE "13:cjc020_3309"
    INDEX 01 01:34:01
  TRACK 83 AUDIO
    TITLE "0:"
    INDEX 01 01:35:16
  TRACK 84 AUDIO
    TITLE "14:cjc020_3310"
    INDEX 01 01:35:24
  TRACK 85 AUDIO
    TITLE "0:"
    INDEX 01 01:40:19
